<svg width="18" height="16" fill="none" xmlns="http://www.w3.org/2000/svg"><path d="M8.48 15.73a.77.77 0 01-.53-.21l-7-7a.75.75 0 010-1.06l7-7a.75.75 0 011.06 0 .74.74 0 010 1.06L2.55 8 9 14.45a.74.74 0 010 1.06.71.71 0 01-.52.22z" fill="#ABABAB"/><path d="M16.52 8.75h-15a.75.75 0 010-1.5h15a.75.75 0 010 1.5z" fill="#ABABAB"/><path d="M8.48 15.73a.77.77 0 01-.53-.21l-7-7a.75.75 0 010-1.06l7-7a.75.75 0 011.06 0 .74.74 0 010 1.06L2.55 8 9 14.45a.74.74 0 010 1.06.71.71 0 01-.52.22z" fill="#ABABAB"/><path d="M16.52 8.75h-15a.75.75 0 010-1.5h15a.75.75 0 010 1.5z" fill="#ABABAB"/></svg>