<svg width="29" height="21" fill="none" xmlns="http://www.w3.org/2000/svg"><path fill-rule="evenodd" clip-rule="evenodd" d="M5.167.167A2.583 2.583 0 002.583 2.75v2.583h2.584v-.756l8.963 8.963a1.938 1.938 0 002.74 0l8.963-8.963V18.25H5.167v-1.292H2.583v1.292a2.583 2.583 0 002.584 2.583h20.666a2.583 2.583 0 002.584-2.583V2.75A2.583 2.583 0 0025.833.167H5.167zm18.84 2.583H6.993l8.507 8.507 8.507-8.507z" fill="#C7CAD1"/><path d="M2.583 7.917a1.292 1.292 0 000 2.583h3.875a1.292 1.292 0 000-2.583H2.583zM0 13.083c0-.713.578-1.291 1.292-1.291H7.75a1.292 1.292 0 010 2.583H1.292A1.292 1.292 0 010 13.083z" fill="#C7CAD1"/></svg>