<svg width="48" height="48" fill="none" xmlns="http://www.w3.org/2000/svg"><path d="M24 .074C10.807.074.074 10.807.074 24 .074 37.193 10.807 47.926 24 47.926c13.193 0 23.926-10.733 23.926-23.926C47.926 10.807 37.193.074 24 .074zM18.844 2.73c-1.914 1.983-3.526 5.06-4.62 8.916h-8.28C8.95 7.262 13.52 4.02 18.843 2.73zm-5.137 10.948a44.177 44.177 0 00-.781 4.726 5.65 5.65 0 00-4.844 4.57H2.135a21.824 21.824 0 012.558-9.296h9.014zM16.988 24a3.36 3.36 0 11-6.718 0 3.36 3.36 0 016.718 0zM2.135 25.016h5.947a5.661 5.661 0 004.844 4.58c.185 1.66.449 3.242.781 4.726H4.703a21.776 21.776 0 01-2.568-9.306zm3.808 11.337h8.282c1.103 3.858 2.705 6.944 4.619 8.916-5.323-1.288-9.893-4.53-12.9-8.916zm17.041 9.249c-2.656-.723-5.088-4.22-6.62-9.248h6.62v9.248zm0-11.28h-7.187a41.045 41.045 0 01-.85-4.834 5.654 5.654 0 004.219-4.463h3.809v9.297h.01zm.01-11.338h-3.808a5.654 5.654 0 00-4.22-4.463 41.5 41.5 0 01.85-4.834h7.178v9.297zm0-11.338h-6.621c1.543-5.029 3.965-8.525 6.621-9.248v9.248zm22.881 11.338H35.397a50.153 50.153 0 00-.352-5.049 5.651 5.651 0 003.535-4.247h4.736a21.824 21.824 0 012.559 9.296zm-12.852-6.963a3.36 3.36 0 110-6.718 3.36 3.36 0 010 6.718zm9.043-4.375H38.57a5.642 5.642 0 00-6.484-4.54c-.86-1.797-1.836-3.262-2.9-4.376 5.312 1.29 9.873 4.532 12.88 8.916zm-17.04-9.248c1.865.508 3.671 2.413 5.136 5.4a5.63 5.63 0 00-2.685 3.839h-2.452V2.398zm0 11.28h2.44c.45 2.646 2.774 4.658 5.557 4.658h.01c.186 1.514.283 3.066.322 4.639h-8.33v-9.297zM36.382 35.24a3.36 3.36 0 11-6.719 0 3.36 3.36 0 016.719 0zM25.025 25.016h8.33a46.212 46.212 0 01-.312 4.55h-.02c-2.822 0-5.166 2.061-5.576 4.756h-2.422v-9.306zm0 20.586v-9.248h2.471a5.646 5.646 0 002.705 3.769c-1.465 3.037-3.29 4.961-5.176 5.479zm4.16-.332c1.085-1.123 2.07-2.627 2.94-4.463.293.048.596.068.898.068 2.735 0 5.01-1.953 5.528-4.531h3.515c-3.007 4.394-7.568 7.636-12.88 8.925zm14.122-10.958H38.58a5.651 5.651 0 00-3.545-4.335 48.62 48.62 0 00.342-4.961h10.488a21.548 21.548 0 01-2.558 9.297z" fill="#C7CAD1"/></svg>