<svg width="32" height="32" fill="none" xmlns="http://www.w3.org/2000/svg"><circle cx="16" cy="16" r="16" fill="url(#paint0_linear_318_1045)"/><path d="M21.264 9.6h-9.729c-1.098 0-1.935.837-1.935 1.935v9.73c0 1.098.837 1.935 1.935 1.935h9.73c1.098 0 1.935-.837 1.935-1.935v-9.73c0-1.098-.837-1.935-1.936-1.935zM16.4 20.48c2.249 0 4.08-1.779 4.08-3.923 0-.366-.053-.785-.157-1.099h1.15v5.545a.524.524 0 01-.523.523h-9.1a.524.524 0 01-.523-.523v-5.597h1.203a3.983 3.983 0 00-.157 1.099c-.052 2.197 1.778 3.975 4.028 3.975zm0-1.57c-1.465 0-2.616-1.15-2.616-2.562 0-1.413 1.151-2.563 2.616-2.563 1.464 0 2.615 1.15 2.615 2.563 0 1.464-1.15 2.563-2.615 2.563zm5.021-5.596a.58.58 0 01-.575.575H19.38a.58.58 0 01-.575-.575v-1.412a.58.58 0 01.575-.576h1.465a.58.58 0 01.575.575v1.413z" fill="#fff"/><defs><linearGradient id="paint0_linear_318_1045" x1="6.8" y1="28.4" x2="28" y2="6.4" gradientUnits="userSpaceOnUse"><stop stop-color="#EEA054"/><stop offset=".503" stop-color="#D64763"/><stop offset="1" stop-color="#B62A99"/></linearGradient></defs></svg>