<svg width="21" height="21" fill="none" xmlns="http://www.w3.org/2000/svg"><path d="M17.756 3.133A10.329 10.329 0 0010.436.1C4.711.1.072 4.722.072 10.428c0 1.805.508 3.611 1.377 5.128L0 20.9l5.508-1.444a10.597 10.597 0 004.928 1.227c5.726 0 10.364-4.622 10.364-10.327-.073-2.673-1.087-5.273-3.044-7.223zm-2.32 10.978c-.216.578-1.231 1.156-1.738 1.228a4.066 4.066 0 01-1.595-.072c-.362-.145-.87-.29-1.45-.578-2.608-1.083-4.275-3.683-4.42-3.9-.145-.144-1.087-1.372-1.087-2.672s.652-1.878.87-2.167c.217-.289.507-.289.724-.289h.507c.145 0 .363-.072.58.434.218.505.725 1.805.797 1.877a.459.459 0 010 .434 1.499 1.499 0 01-.29.433c-.144.144-.29.361-.362.433-.145.145-.29.29-.145.506.145.289.652 1.083 1.45 1.805 1.014.867 1.812 1.156 2.101 1.3.29.145.435.073.58-.072.145-.144.652-.722.797-1.01.145-.29.363-.218.58-.145.218.072 1.522.722 1.74.866.29.145.434.217.507.29.072.216.072.721-.145 1.3z" fill="#48D107"/></svg>