<svg width="20" height="21" fill="none" xmlns="http://www.w3.org/2000/svg"><path d="M7.805 9.402a8.797 8.797 0 003.293 3.293l.737-1.032a.833.833 0 011.078-.246 9.519 9.519 0 003.82 1.136.834.834 0 01.767.831v3.718a.834.834 0 01-.748.83c-.442.046-.887.068-1.335.068C8.283 18 2.5 12.217 2.5 5.083c0-.448.022-.893.068-1.335A.833.833 0 013.398 3h3.718a.833.833 0 01.83.768 9.518 9.518 0 001.137 3.819.833.833 0 01-.246 1.078l-1.032.737zm-2.102-.548l1.584-1.13c-.45-.97-.758-2-.915-3.057H4.175c-.005.138-.007.277-.007.416-.001 6.214 5.035 11.25 11.249 11.25.139 0 .278-.002.416-.008v-2.197a11.175 11.175 0 01-3.056-.915l-1.131 1.584a10.376 10.376 0 01-1.324-.625l-.048-.028a10.463 10.463 0 01-3.918-3.918l-.028-.049a10.37 10.37 0 01-.625-1.323z" fill="#C7CAD1"/></svg>