<svg width="32" height="32" fill="none" xmlns="http://www.w3.org/2000/svg"><circle cx="16" cy="16" r="16" fill="#F40000"/><path d="M22.971 15.13c0-.31-.051-.672-.051-1.086a71.5 71.5 0 00-.156-1.189c-.103-.414-.258-.724-.569-.983-.258-.258-.62-.413-.982-.465-1.19-.155-2.948-.207-5.327-.207s-4.19.052-5.327.207c-.362.052-.724.207-.982.465a2.064 2.064 0 00-.57.983 4.146 4.146 0 00-.155 1.19c-.051.413-.051.775-.051 1.085v2.38c0 .31.051.672.051 1.086.052.413.104.827.156 1.19.103.413.258.723.569.982.258.258.62.413.982.465 1.19.155 2.948.207 5.327.207s4.19-.052 5.327-.207c.362-.052.724-.207.982-.465.26-.259.466-.57.57-.983.103-.362.155-.724.155-1.19.051-.413.051-.775.051-1.085v-2.38zm-4.344 1.604l-4.086 2.534a.395.395 0 01-.258.103c-.104 0-.155 0-.259-.051a.543.543 0 01-.258-.466v-5.12c0-.207.103-.362.258-.465a.47.47 0 01.517 0l4.086 2.534c.155.103.259.258.259.414 0 .155-.104.413-.259.517z" fill="#fff"/></svg>