<svg width="26" height="19" fill="none" xmlns="http://www.w3.org/2000/svg"><path d="M25.241 7.001c0-.553-.092-1.197-.092-1.934-.092-.737-.184-1.474-.276-2.12-.184-.736-.46-1.289-1.014-1.75-.46-.46-1.105-.736-1.75-.829C19.99.092 16.86 0 12.621 0 8.383 0 5.159.092 3.132.368c-.645.093-1.29.369-1.75.83-.46.46-.83 1.013-1.014 1.75-.184.645-.276 1.29-.276 2.119C0 5.804 0 6.448 0 7v4.238c0 .552.092 1.197.092 1.934.092.737.184 1.474.276 2.12.185.736.461 1.289 1.014 1.75.46.46 1.105.736 1.75.829 2.119.276 5.251.368 9.489.368 4.237 0 7.461-.092 9.488-.368.645-.093 1.29-.369 1.75-.83.461-.46.83-1.013 1.014-1.75.184-.645.276-1.29.276-2.119.092-.737.092-1.382.092-1.934V7.001zm-7.738 2.856l-7.277 4.514a.704.704 0 01-.461.184c-.184 0-.277 0-.46-.092-.277-.184-.461-.46-.461-.83v-9.12c0-.368.184-.644.46-.828a.837.837 0 01.921 0l7.278 4.514c.276.184.46.46.46.737 0 .276-.184.737-.46.921z" fill="#CD0000"/></svg>