<svg viewBox="0 0 29 21" xmlns="http://www.w3.org/2000/svg" xmlns:xlink="http://www.w3.org/1999/xlink"><style>:root&gt;svg{display:none}:root&gt;svg:target{display:block}</style><svg viewBox="0 0 18 16" id="arrow" xmlns="http://www.w3.org/2000/svg"><path d="M8.48 15.73a.77.77 0 01-.53-.21l-7-7a.75.75 0 010-1.06l7-7a.75.75 0 011.06 0 .74.74 0 010 1.06L2.55 8 9 14.45a.74.74 0 010 1.06.71.71 0 01-.52.22z"/><path d="M16.52 8.75h-15a.75.75 0 010-1.5h15a.75.75 0 010 1.5z"/><path d="M8.48 15.73a.77.77 0 01-.53-.21l-7-7a.75.75 0 010-1.06l7-7a.75.75 0 011.06 0 .74.74 0 010 1.06L2.55 8 9 14.45a.74.74 0 010 1.06.71.71 0 01-.52.22z"/><path d="M16.52 8.75h-15a.75.75 0 010-1.5h15a.75.75 0 010 1.5z"/></svg><svg viewBox="0 0 29 21" id="mail" xmlns="http://www.w3.org/2000/svg"><path fill-rule="evenodd" clip-rule="evenodd" d="M5.167.167A2.583 2.583 0 002.583 2.75v2.583h2.584v-.756l8.963 8.963a1.938 1.938 0 002.74 0l8.963-8.963V18.25H5.167v-1.292H2.583v1.292a2.583 2.583 0 002.584 2.583h20.666a2.583 2.583 0 002.584-2.583V2.75A2.583 2.583 0 0025.833.167H5.167zm18.84 2.583H6.993l8.507 8.507 8.507-8.507z"/><path d="M2.583 7.917a1.292 1.292 0 000 2.583h3.875a1.292 1.292 0 000-2.583H2.583zM0 13.083c0-.713.578-1.291 1.292-1.291H7.75a1.292 1.292 0 010 2.583H1.292A1.292 1.292 0 010 13.083z"/></svg></svg>